<svg width="105" height="63" viewBox="0 0 105 63" fill="none" xmlns="http://www.w3.org/2000/svg">
<g clip-path="url(#clip0)">
<path d="M29.8872 22.9887C29.7706 26.6267 31.6044 28.2378 31.6497 29.2609C31.6281 29.4692 31.5566 29.6693 31.441 29.8445C31.3255 30.0197 31.1693 30.1649 30.9856 30.268L28.912 31.7072C28.6437 31.8937 28.3274 32.0007 28 32.0156C27.9304 32.0124 26.6733 32.3095 24.6824 27.9021C23.4677 29.4054 21.9223 30.6133 20.1643 31.4332C18.4063 32.2531 16.4824 32.6633 14.54 32.6324C11.9027 32.7754 4.75553 31.1483 5.12326 23.6038C4.86569 17.4552 10.6408 13.6357 16.6135 13.9585C17.7636 13.9617 20.1125 14.0179 24.2256 14.9656V12.4567C24.6613 8.20665 21.8443 4.90908 16.9666 5.4038C16.5778 5.4054 13.8239 5.32349 9.54083 7.02768C8.34855 7.57058 8.19628 7.48064 7.79939 7.48064C6.59902 7.48064 7.0931 4.03048 7.32313 3.59359C8.16712 2.56561 13.1322 0.64618 18.005 0.673486C21.2631 0.387784 24.5037 1.3848 27.0264 3.44903C28.0519 4.58636 28.8343 5.91798 29.3262 7.36347C29.8182 8.80895 30.0096 10.3383 29.8889 11.8592L29.8872 22.9887ZM15.8877 28.1912C21.1412 28.1157 23.3654 24.9836 23.8724 23.2971C24.2709 21.6828 24.2045 20.6613 24.2045 18.896C22.638 18.5234 20.3831 18.117 17.796 18.1138C15.3418 17.9307 10.8595 19.0181 11.0344 23.2955C10.8335 25.9923 12.8358 28.339 15.8877 28.1912ZM43.5757 31.8935C42.3024 32.0092 41.7095 31.1129 41.5216 30.2279L33.4543 3.78152C33.2972 3.33499 33.1935 2.874 33.1433 2.40338C33.1136 2.20936 33.1627 2.01155 33.28 1.85343C33.3972 1.69531 33.573 1.58982 33.7686 1.56012C33.8075 1.55369 33.4236 1.56012 37.373 1.56012C38.7953 1.41877 39.2586 2.52867 39.406 3.22577L45.1924 25.8461L50.5641 3.22577C50.65 2.70856 51.0404 1.44768 52.6376 1.581H55.4175C55.769 1.55209 57.2172 1.50069 57.4715 3.24665L62.8854 26.1561L68.8581 3.24665C68.9358 2.89649 69.2987 1.42038 70.9122 1.581H74.1067C74.2444 1.56012 75.1029 1.45089 74.9571 2.95913C74.8875 3.25628 75.5095 1.24691 66.412 30.2488C66.2257 31.1338 65.6312 32.0301 64.3579 31.9144H61.3302C59.558 32.0991 59.3037 30.3628 59.2761 30.1877L53.9044 8.16167L48.5943 30.1652C48.5684 30.3403 48.314 32.0766 46.5402 31.8919H43.5757V31.8935ZM87.8778 32.7978C86.9252 32.7994 82.3829 32.7497 78.5858 30.8238C78.2076 30.665 77.8854 30.3984 77.6602 30.0578C77.4349 29.7173 77.3167 29.318 77.3206 28.9108V27.1841C77.3206 25.8269 78.325 26.0758 78.751 26.238C80.3775 26.8902 81.4207 27.3849 83.4181 27.78C89.3551 28.9895 91.9665 27.4106 92.6064 27.0604C94.7366 25.806 94.9051 22.9357 93.4568 21.4467C91.7591 20.0348 90.9492 19.9818 84.8501 18.0736C84.0985 17.8664 77.771 15.8876 77.7564 9.66349C77.6576 5.12753 81.8143 0.639755 89.0182 0.676698C91.0707 0.675092 96.5396 1.34007 98.0202 3.18561C98.2389 3.52131 98.3474 3.91644 98.3312 4.31639V5.94027C98.3312 6.65343 98.0688 7.01001 97.5423 7.01001C96.2933 6.87188 94.0773 5.21587 89.5787 5.28333C88.4626 5.22551 83.1168 5.4295 83.3565 9.29406C83.2869 12.3394 87.6672 13.4815 88.1677 13.6132C94.074 15.3752 96.0487 15.6675 98.3928 18.3644C101.169 21.9382 99.6725 26.1224 99.0975 27.2692C96.0066 33.2909 88.0138 32.801 87.8778 32.7978ZM94.3899 49.6406C83.0455 57.948 66.5772 62.3699 52.5162 62.3699C33.5435 62.494 15.2103 55.5768 1.12039 42.978C0.0625718 42.032 0.995656 40.7358 2.28189 41.457C17.9118 50.3219 35.6081 54.9799 53.6145 54.9685C67.0611 54.897 80.3611 52.1922 92.7505 47.0097C94.6588 46.2065 96.2772 48.2625 94.3899 49.6406ZM99.1185 44.2935C97.6671 42.4432 89.5155 43.4294 85.8658 43.8615C84.7659 43.9851 84.5796 43.0391 85.5758 42.3404C92.0669 37.8157 102.728 39.1119 103.952 40.633C105.175 42.1541 103.62 52.7455 97.5439 57.805C96.6108 58.5873 95.7183 58.1745 96.133 57.1465C97.5002 53.7333 100.57 46.1455 99.1185 44.2935Z" fill="white"/>
</g>
<defs>
<clipPath id="clip0">
<rect width="104" height="62" fill="white" transform="translate(0.5 0.5)"/>
</clipPath>
</defs>
</svg>
